<svg xmlns="http://www.w3.org/2000/svg" viewBox="0 0 1280 640" font-family="'Cascadia Code','JetBrains Mono',Consolas,'Courier New',monospace" role="img" aria-label="gsoc@katana: ~/dev/ai-trinity terminal showcase"><defs><clipPath id="win"><rect x="24" y="24" width="1232" height="592" rx="12"/></clipPath></defs><rect x="0" y="0" width="1280" height="640" fill="#010409"/>
  <rect x="24" y="24" width="1232" height="592" rx="12" fill="#0d1117" stroke="#30363d" stroke-width="1.5"/>
  <g clip-path="url(#win)"><rect x="24" y="24" width="1232" height="46" fill="#161b22"/>
    <line x1="24" y1="70" x2="1256" y2="70" stroke="#30363d" stroke-width="1"/></g>
  <circle cx="52" cy="47" r="7" fill="#ff5f56"/><circle cx="76" cy="47" r="7" fill="#febc2e"/>
  <circle cx="100" cy="47" r="7" fill="#27c93f"/>
  <text x="640" y="52" fill="#8b949e" font-size="16" text-anchor="middle">gsoc@katana: ~/dev/ai-trinity</text>
  <text x="1236" y="52" fill="#6e7681" font-size="15" text-anchor="end">ai-trinity v1.0.0</text><text x="56" y="118" font-size="19"><tspan fill="#3fb950">gsoc@katana</tspan><tspan fill="#8b949e">:</tspan><tspan fill="#58a6ff">~/dev/ai-trinity</tspan><tspan fill="#8b949e">$ </tspan><tspan fill="#e6edf3">ai-trinity --manifest</tspan></text><text x="56" y="164" fill="#c9d1d9" font-size="18">&#9656; pillar 1 &#183; low-error Model</text><text x="640" y="164" fill="#39c5cf" font-size="18">Opus 4.8</text><text x="56" y="200" fill="#c9d1d9" font-size="18">&#9656; pillar 2 &#183; enforced Harness</text><rect x="640" y="183" width="60" height="24" rx="5" fill="#238636"/><text x="670.0" y="200" fill="#e6edf3" text-anchor="middle" font-size="14" font-weight="700">ECC</text><text x="56" y="236" fill="#c9d1d9" font-size="18">&#9656; pillar 3 &#183; durable Memory</text><rect x="640" y="219" width="120" height="24" rx="5" fill="#238636"/><text x="700.0" y="236" fill="#e6edf3" text-anchor="middle" font-size="14" font-weight="700">MemPalace</text><text x="56" y="272" fill="#c9d1d9" font-size="18">&#9656; the session ends</text><text x="640" y="272" fill="#e6edf3" font-size="18">memory survives</text><text x="56" y="322" fill="#8b949e" font-size="15" letter-spacing="1">// a model alone forgets &#8212; the trinity remembers</text><text x="56" y="384" font-size="46" font-weight="800"><tspan fill="#f85149">1</tspan><tspan fill="#6e7681" font-size="34">  &#9472;&#9472;&#9654;  </tspan><tspan fill="#3fb950">3</tspan><tspan fill="#8b949e" font-size="22" font-weight="600">  pillars &#8212; at once</tspan></text><text x="56" y="436" font-size="19"><tspan fill="#3fb950" font-weight="700">&#10003; Model &#215; Harness &#215; Memory  &#183;  a field manual</tspan></text><text x="56" y="466" font-size="16" fill="#6e7681">each pillar multiplies the others &#8212; capability compounds.</text><text x="56" y="512" font-size="19"><tspan fill="#3fb950">gsoc@katana</tspan><tspan fill="#8b949e">:</tspan><tspan fill="#58a6ff">~/dev/ai-trinity</tspan><tspan fill="#8b949e">$ </tspan></text><rect x="470" y="497" width="11" height="20" fill="#3fb950"/><line x1="24" y1="566" x2="1256" y2="566" stroke="#30363d" stroke-width="1"/><text x="56" y="596" font-size="15" fill="#6e7681">CC BY 4.0 &#183; field manual &#183; vendor-neutral</text><text x="1200" y="596" font-size="15" fill="#d29922" text-anchor="end" letter-spacing="0.5">keilerhirsch</text><rect x="1211" y="582" width="10" height="16" fill="#3fb950"/></svg>